<?xml version="1.0" encoding="UTF-8"?>
<svg id="Capa_1" xmlns="http://www.w3.org/2000/svg" version="1.1" viewBox="0 0 45 45">
  <!-- Generator: Adobe Illustrator 29.5.0, SVG Export Plug-In . SVG Version: 2.1.0 Build 137)  -->
  <defs>
    <style>
      .st0 {
        fill-rule: evenodd;
        stroke-linejoin: round;
      }

      .st0, .st1 {
        stroke: #fff;
        stroke-width: 1.5px;
      }

      .st1 {
        fill: none;
        stroke-linecap: round;
      }
    </style>
  </defs>
  <g>
    <path class="st0" d="M9,36.6c3.4-1,10.1.4,13.5-2,3.4,2.4,10.1,1,13.5,2,0,0,1.7.5,3,2-.7,1-1.7,1-3,.5-3.4-1-10.1.5-13.5-1-3.4,1.5-10.1,0-13.5,1-1.3.5-2.3.5-3-.5,1.3-1.5,3-2,3-2Z"/>
    <path class="st0" d="M30,30.6s.5.5,0,2c-2.5,2.5-12.5,2.5-15,0-.5-1.5,0-2,0-2,0-2.5,2.5-4,2.5-4-5.5-1.5-6-11.5,5-15.5,11,4,10.5,14,5,15.5,0,0,2.5,1.5,2.5,4Z"/>
    <path class="st0" d="M25,8.6c0,1.4-1.1,2.5-2.5,2.5s-2.5-1.1-2.5-2.5,1.1-2.5,2.5-2.5,2.5,1.1,2.5,2.5Z"/>
  </g>
  <path class="st1" d="M17.5,26.6h10M15,30.6h15M22.5,16.1v5M20,18.6h5"/>
</svg>