<?xml version="1.0" encoding="UTF-8"?>
<svg id="Capa_1" xmlns="http://www.w3.org/2000/svg" version="1.1" viewBox="0 0 45 45">
  <!-- Generator: Adobe Illustrator 29.5.0, SVG Export Plug-In . SVG Version: 2.1.0 Build 137)  -->
  <defs>
    <style>
      .st0 {
        fill-rule: evenodd;
        stroke-linejoin: round;
        stroke-width: 1.5px;
      }

      .st0, .st1 {
        stroke: #fff;
      }

      .st1 {
        fill: none;
        stroke-linecap: round;
      }
    </style>
  </defs>
  <polygon class="st0" points="36 36.3 36 39.3 9 39.3 9 36.3 12 36.3 12 32.3 12.5 32.3 14 29.8 14 16.8 11 14.3 11 9.3 15 9.3 15 11.3 20 11.3 20 9.3 25 9.3 25 11.3 30 11.3 30 9.3 34 9.3 34 14.3 31 16.8 31 29.8 32.5 32.3 33 32.3 33 36.3 36 36.3"/>
  <path class="st1" d="M12,35.8h21"/>
  <path class="st1" d="M13,31.8h19"/>
  <path class="st1" d="M14,29.8h17"/>
  <path class="st1" d="M14,16.8h17"/>
  <path class="st1" d="M11,14.3h23"/>
</svg>