<?xml version="1.0" encoding="UTF-8"?>
<svg id="Capa_1" xmlns="http://www.w3.org/2000/svg" version="1.1" viewBox="0 0 45 45">
  <!-- Generator: Adobe Illustrator 29.5.0, SVG Export Plug-In . SVG Version: 2.1.0 Build 137)  -->
  <defs>
    <style>
      .st0, .st1 {
        fill: none;
        stroke-linecap: round;
      }

      .st0, .st1, .st2 {
        stroke: #fff;
        stroke-width: 1.5px;
      }

      .st1 {
        stroke-linejoin: round;
      }

      .st2 {
        fill-rule: evenodd;
      }
    </style>
  </defs>
  <g>
    <g>
      <path id="path6570" class="st0" d="M22.5,11.6v-5.6"/>
      <path class="st2" d="M32.5,30c-5.5-3-14.5-3-20,0,0,0-9-4.5-6-10.5,3.1-5,9.4-4.4,13.3-.5-.5-1.7-.8-3.4-.3-4.5,0,0,1-2.5,3-2.5s3,2.5,3,2.5c.5,1.1.3,2.8-.3,4.5,3.9-3.9,10.2-4.5,13.3.5,3,6-6,10.5-6,10.5Z"/>
      <path class="st2" d="M32.5,30v7c-5.5,3.5-14.5,3.5-20,0v-7c2.7-1.5,6.2-2.2,9.7-2.2s7.5.7,10.3,2.2Z"/>
      <path class="st0" d="M20,8h5"/>
    </g>
    <path class="st1" d="M12.5,37c5.5-3,14.5-3,20,0M12.5,33.5c5.5-3,14.5-3,20,0"/>
  </g>
  <path class="st2" d="M22,25.4s-.2-7.9,9.7-9.5"/>
  <path class="st2" d="M22.5,27.1s1.2-10.2-10.6-11.2"/>
</svg>