<?xml version="1.0" encoding="UTF-8"?>
<svg id="Capa_1" xmlns="http://www.w3.org/2000/svg" version="1.1" viewBox="0 0 45 45">
  <!-- Generator: Adobe Illustrator 29.5.0, SVG Export Plug-In . SVG Version: 2.1.0 Build 137)  -->
  <defs>
    <style>
      .st0 {
        fill: none;
        stroke-width: 1.5px;
      }

      .st0, .st1, .st2, .st3 {
        stroke-linejoin: round;
      }

      .st0, .st1, .st3 {
        stroke-linecap: round;
      }

      .st0, .st2, .st3 {
        stroke: #fff;
      }

      .st1 {
        stroke: #000;
      }

      .st1, .st2, .st3 {
        stroke-width: 1.5px;
      }
    </style>
  </defs>
  <path class="st2" d="M38.4,13.9l-2.4,12.1c0,2-1.5,2-2.5,4-1,1.5-1,1-.5,3.5,1.5,1,1,2.5,1,2.5,1.5,1.5,0,2.5,0,2.5-6.5,1-16.5,1-23,0,0,0-1.5-1,0-2.5,0,0-.5-1.5,1-2.5.5-2.5.5-2-.5-3.5-1-2-2.5-2-2.5-4l-2.4-12.1s0,0,.1,0l7.3,11.1.3-14.1,5.2,13.6,3-14.5,3,14.5,5.2-13.6.3,14.1,7.3-11.1s0,0,.1,0Z"/>
  <path class="st2" d="M6.7,13.9s0,0-.1,0v-.4c0,0,.1.4.1.4Z"/>
  <path class="st2" d="M38.5,13.5v.4c-.1,0-.2,0-.2,0l.2-.4Z"/>
  <path class="st1" d="M12,33.5c6-1,15-1,21,0"/>
  <path class="st3" d="M8,12c0,.8-.5,1.6-1.3,1.9,0,0,0,0-.1,0-.2,0-.4,0-.6,0-1.1,0-2-.9-2-2s.9-2,2-2,2,.9,2,2Z"/>
  <circle class="st3" cx="14" cy="9" r="2"/>
  <circle class="st3" cx="22.5" cy="8" r="2"/>
  <circle class="st3" cx="31" cy="9" r="2"/>
  <path class="st3" d="M41,12c0,1.1-.9,2-2,2s-.4,0-.6,0c0,0,0,0-.1,0-.7-.3-1.3-1-1.3-1.9s.9-2,2-2,2,.9,2,2Z"/>
  <g>
    <path class="st0" d="M11.1,27.8c7.3-2.7,15.2-2.7,22.4,0"/>
    <path class="st0" d="M12.6,30.4h19.5"/>
    <path class="st0" d="M11.6,33.5c7,2.5,14.5,2.5,21.4,0"/>
    <path class="st0" d="M10.6,36.7c7.6,2.9,15.8,2.9,23.4,0"/>
  </g>
</svg>